<?xml version="1.0" encoding="iso-8859-1"?>
<!-- Generator: Adobe Illustrator 18.1.1, SVG Export Plug-In . SVG Version: 6.00 Build 0)  -->
<svg version="1.1" id="Capa_1" xmlns="http://www.w3.org/2000/svg" xmlns:xlink="http://www.w3.org/1999/xlink" x="0px" y="0px"
	 viewBox="0 0 27.497 27.497" style="enable-background:new 0 0 27.497 27.497;" xml:space="preserve">
<g>
	<g id="c133_player">
		<path style="fill:#ffffff;" d="M13.748,0.001C6.154,0.001,0,6.156,0,13.748c0,7.593,6.154,13.748,13.748,13.748
			c7.592,0,13.749-6.155,13.749-13.748C27.496,6.156,21.34,0.001,13.748,0.001z M20.514,21.44c0,0.139-0.078,0.266-0.203,0.325
			l-0.16,0.037c-0.078,0-0.16-0.028-0.225-0.077l-8.538-6.737v6.42c0,0.2-0.128,0.365-0.285,0.365H8.698
			c-0.155,0-0.284-0.165-0.284-0.365V6.086c0-0.197,0.129-0.361,0.284-0.361h2.405c0.157,0,0.285,0.164,0.285,0.361v6.419
			l8.538-6.733c0.109-0.085,0.256-0.103,0.385-0.039c0.125,0.059,0.203,0.186,0.203,0.327C20.514,6.06,20.514,21.44,20.514,21.44z"
			/>
	</g>
</g>
<g>
</g>
<g>
</g>
<g>
</g>
<g>
</g>
<g>
</g>
<g>
</g>
<g>
</g>
<g>
</g>
<g>
</g>
<g>
</g>
<g>
</g>
<g>
</g>
<g>
</g>
<g>
</g>
<g>
</g>
</svg>
